<?xml version="1.0" encoding="utf-8"?>
<!-- Generator: Adobe Illustrator 16.0.3, SVG Export Plug-In . SVG Version: 6.00 Build 0)  -->
<!DOCTYPE svg PUBLIC "-//W3C//DTD SVG 1.1//EN" "http://www.w3.org/Graphics/SVG/1.1/DTD/svg11.dtd">
<svg version="1.1" id="Layer_1" xmlns="http://www.w3.org/2000/svg" xmlns:xlink="http://www.w3.org/1999/xlink" x="0px" y="0px"
	 width="207px" height="29px" viewBox="0 0 207 29" enable-background="new 0 0 207 29" xml:space="preserve">
<path fill="#231F20" d="M12.942,11.266c-1.511,0-3.208-0.053-4.536-0.188l-0.079,6.817c0,1.938,0.69,2.415,2.6,2.494
	c0.053,0,0.079,0.158,0.079,0.317s-0.053,0.292-0.133,0.292c-1.299-0.106-2.572-0.106-3.952-0.106c-1.193,0-2.52,0.027-3.952,0.106
	c-0.053,0-0.105-0.133-0.105-0.292c0-0.186,0.053-0.317,0.105-0.317c1.698-0.159,2.706-0.529,2.706-2.415
	c0-4.11-0.053-11.75-0.053-12.996c0-1.459-0.663-2.229-2.784-2.229c-0.081,0-0.107-0.159-0.107-0.318
	c0-0.239,0.081-0.451,0.16-0.451c1.299,0.106,2.652,0.132,4.165,0.132c1.272,0,2.679-0.08,4.137-0.08
	c0.053,0,0.107,0.186,0.107,0.372c0,0.186-0.054,0.371-0.107,0.371c-1.962,0-2.732,0.743-2.732,2.759l-0.053,5.013
	c1.513-0.079,3.768-0.132,5.252-0.132c1.724,0,3.421,0.053,4.695,0.159c0-2.625-0.026-4.986-0.026-5.596
	c0-1.459-0.637-2.229-2.785-2.229c-0.055,0-0.081-0.159-0.081-0.318c0-0.239,0.053-0.451,0.134-0.451
	c1.326,0.106,2.679,0.132,4.191,0.132c1.272,0,2.679-0.08,4.11-0.08c0.053,0,0.133,0.186,0.133,0.372
	c0,0.186-0.081,0.371-0.133,0.371c-1.936,0-2.731,0.743-2.731,2.759c0,0.822-0.106,10.742-0.106,12.36
	c0,1.938,0.664,2.415,2.6,2.494c0.053,0,0.079,0.158,0.079,0.317s-0.053,0.292-0.132,0.292c-1.327-0.106-2.573-0.106-3.953-0.106
	c-1.193,0-2.52,0.027-3.951,0.106c-0.053,0-0.132-0.133-0.132-0.292c0-0.186,0.079-0.317,0.132-0.317
	c1.697-0.159,2.705-0.529,2.705-2.415c0-1.83,0-4.375-0.053-6.762C17.027,11.266,13.845,11.266,12.942,11.266z M31.268,21.398
	c-3.501,0-6.392-2.76-6.392-6.182c0-3.421,2.891-6.18,6.392-6.18c3.529,0,6.419,2.759,6.419,6.18
	C37.688,18.639,34.797,21.398,31.268,21.398z M35.062,15.217c0-3.156-1.38-5.464-3.794-5.464c-2.439,0-3.766,2.069-3.766,5.464
	c0,3.501,1.353,5.49,3.766,5.49C33.682,20.707,35.062,18.639,35.062,15.217z M40.552,25.005c0,1.83,1.617,3.289,4.456,3.289
	c3.129,0,4.482-1.777,4.482-3.447c0-1.513-0.583-2.893-2.864-2.893c-1.3,0-2.44,0.08-3.183,0.08c-1.14,0-3.606-0.08-3.606-2.095
	c0-1.195,1.061-2.336,2.864-2.494c-1.671-0.583-2.758-2.016-2.758-4.058c0-2.546,1.962-4.351,4.562-4.351
	c1.644,0,3.077,0.716,3.82,1.883c0.636-1.273,1.618-1.803,2.573-1.803c1.193,0,1.936,0.61,1.936,1.564
	c0,0.744-0.504,1.035-0.955,1.035c-0.478,0-0.796-0.212-1.034-0.717c-0.134-0.265-0.266-0.477-0.823-0.477
	c-0.504,0-1.22,0.319-1.22,1.142c0,0.556,0.292,1.112,0.292,1.724c0,2.863-1.353,4.375-5.066,4.375
	c-2.229,0-2.918,0.744-2.918,1.406c0,0.638,0.425,0.797,1.67,0.797c1.46,0,2.521-0.105,4.085-0.105c3.342,0,4.535,1.988,4.535,4.004
	c0,2.492-2.068,5.226-6.233,5.226c-4.907,0-6.658-1.963-6.658-4.085c0-1.459,0.875-2.441,2.281-2.441
	c0.318,0,0.716,0.133,0.902,0.292C40.896,23.388,40.552,23.996,40.552,25.005z M46.917,13.308c0-2.016-1.008-3.502-2.44-3.502
	c-1.272,0-2.36,1.352-2.36,3.502c0,2.413,1.088,3.792,2.44,3.792C45.804,17.101,46.917,15.693,46.917,13.308z M62.273,12.352
	c0,1.194-0.265,3.955-0.265,6.579c0,0.902,0.371,1.167,0.902,1.167c0.425,0,0.901-0.158,1.087-0.584
	c0.026-0.054,0.079-0.08,0.133-0.08c0.106,0,0.318,0.106,0.318,0.238c0,0.347-0.743,1.672-2.387,1.672
	c-1.591,0-2.042-0.716-2.095-2.308c-0.875,1.459-2.493,2.281-3.953,2.281c-1.883,0-2.891-0.822-2.891-2.36
	c0-1.883,1.378-3.898,6.87-5.278v-1.354c0-1.458-0.187-2.546-2.149-2.546c-1.486,0-2.095,0.61-2.44,1.566
	c-0.159,0.45-0.637,0.715-1.034,0.715c-0.451,0-0.849-0.265-0.849-0.795c0-0.823,0.955-2.229,4.562-2.229
	C61.372,9.037,62.273,10.045,62.273,12.352z M59.94,14.261c-3.529,1.036-4.404,2.521-4.404,4.086c0,1.06,0.664,1.671,1.618,1.671
	c0.795,0,1.671-0.347,2.76-1.645C59.914,16.941,59.914,15.535,59.94,14.261z M66.146,10.284h-1.008
	c-0.133,0-0.186-0.106-0.186-0.239c0-0.16,0.053-0.266,0.186-0.292c1.326-0.106,2.254-0.265,3.342-0.716
	c0.318,0,0.503,0.16,0.503,0.372c0,0.743-0.053,1.564-0.079,2.281c0.637-1.805,2.334-2.653,3.342-2.653
	c1.353,0,1.803,0.716,1.803,1.379c0,0.688-0.397,1.168-1.008,1.168c-0.238,0-0.557-0.106-0.743-0.506
	c-0.212-0.423-0.609-0.609-1.087-0.609c-0.981,0-2.229,0.823-2.229,3.448c0,1.38-0.026,4.748-0.026,5.331
	c0,0.771,0.478,1.194,2.123,1.194c0.053,0,0.106,0.159,0.106,0.317c0,0.106-0.027,0.213-0.106,0.213c-1.221,0-2.202-0.08-3.13-0.08
	c-1.14,0-2.493,0.08-2.97,0.08c-0.053,0-0.105-0.106-0.105-0.239c0-0.158,0.053-0.291,0.105-0.291c1.485,0,1.777-0.503,1.777-1.114
	c0-0.637,0.054-4.137,0.054-8.276C66.809,10.469,66.624,10.284,66.146,10.284z M81.264,19.169c0.132,0,0.291,0.105,0.291,0.238
	c0,1.141-1.193,1.963-2.943,1.963c-1.804,0-3.051-0.769-3.051-2.996c0-1.856,0.08-6.552,0.08-7.481c0-0.185-0.026-0.371-0.132-0.45
	c-0.133-0.106-0.769-0.133-0.928-0.133c-0.08,0-0.132-0.106-0.132-0.212s0.053-0.186,0.132-0.213
	c1.406-0.344,2.123-1.67,2.705-3.448c0.026-0.08,0.08-0.106,0.213-0.106c0.239,0,0.477,0.08,0.477,0.186
	c0,0.689-0.026,2.467-0.079,3.21c1.007-0.027,2.202-0.08,3.183-0.08c0.105,0,0.159,0.266,0.159,0.452
	c0,0.186-0.053,0.424-0.159,0.424c-0.955,0-2.202-0.026-3.183-0.026c-0.027,1.168-0.106,2.574-0.106,3.898
	c0,1.75,0.026,3.395,0.026,4.458c0,0.981,0.716,1.299,1.486,1.299c0.954,0,1.618-0.396,1.724-0.743
	C81.052,19.222,81.157,19.169,81.264,19.169z M90.653,9.037c1.803,0,3.739,1.035,3.739,3.474c0,1.883-0.212,4.643-0.212,5.863
	c0,1.433,0.186,1.989,1.883,2.121c0.053,0,0.105,0.186,0.105,0.318c0,0.106-0.026,0.212-0.105,0.212
	c-0.955,0-1.936-0.159-3.209-0.159c-0.664,0-1.857,0.054-2.679,0.054c-0.053,0-0.105-0.106-0.105-0.266
	c0-0.133,0.053-0.265,0.105-0.265c1.327,0,1.83-0.557,1.83-1.433c0-1.672,0.106-4.749,0.106-6.287c0-1.592-1.061-2.439-2.333-2.439
	c-1.857,0-3.528,1.115-3.528,4.563c0,1.457-0.026,3.872-0.026,4.455c0,0.771,0.026,1.142,1.75,1.142
	c0.054,0,0.106,0.158,0.106,0.317c0,0.106-0.026,0.213-0.106,0.213c-1.061,0-1.804-0.054-2.626-0.054
	c-1.087,0-2.307,0.133-3.076,0.133c-0.054,0-0.106-0.106-0.106-0.239c0-0.158,0.053-0.291,0.106-0.291
	c1.458-0.079,1.83-0.238,1.83-1.273c0-2.492-0.053-14.189-0.053-15.755c0-1.034-0.399-1.273-1.99-1.273
	c-0.132,0-0.159-0.159-0.159-0.344c0-0.212,0.027-0.399,0.159-0.399C84.313,1.424,85.852,1,86.09,1c0.266,0,0.425,0.133,0.425,0.238
	c0,0.77-0.266,7.666-0.319,10.531C86.701,10.019,88.876,9.037,90.653,9.037z M120.836,6.411c0.317,0.053,0.557,0.398,0.557,0.769
	c0,0.425-0.292,0.875-0.956,0.875c-0.61,0-0.954-0.477-0.954-1.193c0-0.69,0.688-1.565,1.989-1.565c1.141,0,2.227,0.849,2.227,2.281
	c0,2.334-1.722,3.156-5.302,3.873c-1.196,0.239-2.441,0.371-3.662,0.821c0.347,0,0.691,0,1.009,0.026
	c2.095,0.133,3.925,1.592,3.925,4.033c0,2.89-2.892,5.146-7.188,5.146c-5.118,0-8.222-3.104-8.222-6.763
	c0-3.051,2.042-5.891,6.736-6.288c-1.088-0.796-1.617-1.964-1.617-3.13c0-2.042,1.671-3.899,4.322-3.899
	c2.282,0,3.688,1.273,3.688,3.236c0,0.637-0.08,0.955-0.188,1.221c-0.053,0.132-0.132,0.159-0.292,0.159
	c-0.132,0-0.238-0.053-0.238-0.159c0-1.964-1.404-2.813-2.571-2.813c-2.466,0-3.554,1.592-3.554,3.077
	c0,1.193,0.583,2.255,1.459,2.255c1.695,0,2.095,0.265,2.095,0.77c0,0.424-0.294,0.636-0.691,0.636
	c-0.954,0-1.324-0.689-2.068-0.689c-2.89,0-4.536,2.149-4.536,5.33c0,3.98,3.051,6.075,6.181,6.075c2.865,0,5.413-1.459,5.413-4.163
	c0-2.071-1.488-3.45-3.555-3.45c-1.832,0-2.812,0.876-2.812,2.018c0,0.212,0.159,0.345,0.317,0.345c0.318,0,0.477-0.424,1.033-0.424
	c0.532,0,0.982,0.371,0.982,1.006c0,0.665-0.611,1.036-1.3,1.036c-0.821,0-1.777-0.585-1.777-1.884c0-1.141,0.347-2.15,2.813-3.077
	c1.301-0.477,1.989-0.717,2.757-0.956c4.857-1.484,5.863-2.201,5.863-3.686c0-0.902-0.45-1.379-1.194-1.379
	C121.153,5.881,120.836,6.093,120.836,6.411z M139.427,21.425c-5.914,0-10.664-4.324-10.664-9.841
	c0-5.544,4.75-10.027,10.664-10.027c5.888,0,10.662,4.483,10.662,10.027C150.089,17.101,145.314,21.425,139.427,21.425z
	 M146.641,11.69c0-5.438-2.863-9.257-7.214-9.257c-4.191,0-7.109,3.687-7.109,9.257c0,5.675,2.468,9.097,7.109,9.097
	C143.698,20.787,146.641,17.18,146.641,11.69z M152.979,25.005c0,1.83,1.618,3.289,4.455,3.289c3.13,0,4.485-1.777,4.485-3.447
	c0-1.513-0.585-2.893-2.864-2.893c-1.301,0-2.442,0.08-3.184,0.08c-1.142,0-3.607-0.08-3.607-2.095c0-1.195,1.06-2.336,2.866-2.494
	c-1.674-0.583-2.76-2.016-2.76-4.058c0-2.546,1.962-4.351,4.561-4.351c1.646,0,3.076,0.716,3.818,1.883
	c0.638-1.273,1.62-1.803,2.574-1.803c1.194,0,1.938,0.61,1.938,1.564c0,0.744-0.505,1.035-0.957,1.035
	c-0.478,0-0.796-0.212-1.033-0.717c-0.133-0.265-0.266-0.477-0.822-0.477c-0.503,0-1.22,0.319-1.22,1.142
	c0,0.556,0.291,1.112,0.291,1.724c0,2.863-1.353,4.375-5.066,4.375c-2.227,0-2.918,0.744-2.918,1.406
	c0,0.638,0.424,0.797,1.674,0.797c1.456,0,2.519-0.105,4.083-0.105c3.343,0,4.534,1.988,4.534,4.004
	c0,2.492-2.068,5.226-6.231,5.226c-4.907,0-6.657-1.963-6.657-4.085c0-1.459,0.876-2.441,2.279-2.441
	c0.318,0,0.716,0.133,0.901,0.292C153.323,23.388,152.979,23.996,152.979,25.005z M159.346,13.308c0-2.016-1.009-3.502-2.441-3.502
	c-1.271,0-2.36,1.352-2.36,3.502c0,2.413,1.089,3.792,2.439,3.792C158.23,17.101,159.346,15.693,159.346,13.308z M165.736,10.284
	c-0.133,0-0.186-0.106-0.186-0.239c0-0.16,0.053-0.266,0.186-0.292c1.326-0.106,2.253-0.265,3.342-0.716
	c0.32,0,0.506,0.16,0.506,0.372c0,0.795-0.186,6.841-0.186,9.76c0,0.797,0.079,1.168,1.801,1.273c0.053,0,0.105,0.186,0.105,0.317
	c0,0.106-0.026,0.213-0.105,0.213c-0.688,0-1.615-0.08-2.865-0.08c-1.033,0-2.066,0.08-2.836,0.08c-0.054,0-0.106-0.133-0.106-0.292
	c0-0.105,0.053-0.238,0.106-0.238c1.485-0.105,1.829-0.424,1.829-1.301c0-3.395,0.026-6.287,0.026-8.09
	c0-0.583-0.132-0.768-0.609-0.768H165.736z M167.169,3.095c0-0.795,0.636-1.432,1.406-1.432s1.406,0.637,1.406,1.432
	c0,0.795-0.636,1.433-1.406,1.433S167.169,3.891,167.169,3.095z M175.15,20.893c-0.927,0-2.066,0.08-2.916,0.08
	c-0.081,0-0.107-0.133-0.107-0.266c0-0.132,0.026-0.265,0.107-0.265c1.698-0.105,1.83-0.503,1.83-1.221
	c0-3.634-0.053-13.951-0.053-15.781c0-1.034-0.292-1.273-1.911-1.273c-0.133,0-0.159-0.159-0.159-0.344
	c0-0.212,0.026-0.399,0.159-0.399c2.256,0,3.662-0.424,3.874-0.424c0.264,0,0.424,0.133,0.424,0.238c0,0.425-0.16,5.862-0.16,17.931
	c0,0.771,0.16,1.142,1.831,1.273c0.053,0,0.105,0.159,0.105,0.317c0,0.106-0.026,0.213-0.105,0.213
	C177.089,20.973,176.159,20.893,175.15,20.893z M196.08,9.62c0.079,0,0.105,0.133,0.105,0.238c0,0.134-0.026,0.267-0.105,0.293
	c-0.982,0.106-1.327,0.423-1.327,0.927c0,0.135,0,0.268,0.053,0.399c0.663,1.777,2.387,5.411,3.131,6.949
	c0.636-1.406,2.704-6.207,2.704-7.295c0-0.557-0.053-0.874-1.06-0.927c-0.08,0-0.106-0.159-0.106-0.292
	c0-0.106,0.026-0.239,0.106-0.239c0.318,0,1.165,0.026,1.909,0.026c1.142,0,2.068-0.08,2.308-0.08c0.079,0,0.105,0.133,0.105,0.238
	c0,0.134-0.026,0.267-0.105,0.293c-0.77,0.185-1.166,0.609-1.565,1.194c-0.106,0.159-0.556,1.033-1.14,2.254
	c-1.353,2.865-3.874,8.408-5.624,12.862c-0.901,2.31-1.963,3.077-2.784,3.077c-0.531,0-0.902-0.317-0.902-1.06
	c0-1.22,2.121-1.855,2.918-3.13c0.795-1.274,1.646-3.368,2.042-4.536c-0.133-0.318-1.194-2.572-2.492-5.278
	c-1.938-4.058-2.229-5.251-3.156-5.251c-0.639,0-0.903,0.424-1.222,0.982c-0.238,0.398-0.556,1.113-1.141,2.334
	c-1.352,2.865-3.184,6.631-3.448,7.452c-0.079,0.266-0.212,0.266-0.556,0.266c-0.318,0-0.557-0.081-0.583-0.266
	c-0.053-0.477-1.168-2.783-2.336-5.517c-1.883-4.431-2.254-5.278-3.395-5.41c-0.054-0.054-0.106-0.186-0.106-0.319
	c0-0.106,0.026-0.212,0.106-0.212c0.264,0,1.167,0.106,2.759,0.106c1.247,0,1.963-0.053,2.52-0.053c0.079,0,0.105,0.133,0.105,0.238
	c0,0.134-0.026,0.293-0.105,0.293c-0.928,0.106-1.272,0.424-1.272,0.848c0,0.132,0,0.347,0.053,0.479
	c0.609,1.777,2.255,5.57,2.97,7.266c0.638-1.433,2.918-6.472,2.918-7.639c0-0.557-0.105-0.821-1.114-0.927
	c-0.08,0-0.106-0.159-0.106-0.292c0-0.106,0.026-0.239,0.106-0.239c0.24,0,2.203,0.026,3.874,0.026
	C193.108,9.7,195.283,9.62,196.08,9.62z"/>
</svg>
