<?xml version="1.0" encoding="utf-8"?>
<!-- Generator: Adobe Illustrator 16.0.3, SVG Export Plug-In . SVG Version: 6.00 Build 0)  -->
<!DOCTYPE svg PUBLIC "-//W3C//DTD SVG 1.1//EN" "http://www.w3.org/Graphics/SVG/1.1/DTD/svg11.dtd">
<svg version="1.1" id="Layer_1" xmlns="http://www.w3.org/2000/svg" xmlns:xlink="http://www.w3.org/1999/xlink" x="0px" y="0px"
	 width="197.294px" height="58.168px" viewBox="0 0 197.294 58.168" enable-background="new 0 0 197.294 58.168"
	 xml:space="preserve">
<g>
	<path fill="#9D9FA2" d="M19.121,35.582c-1.338,0-2.841-0.047-4.016-0.164l-0.07,6.035c0,1.714,0.611,2.137,2.301,2.207
		c0.047,0,0.071,0.141,0.071,0.282c0,0.141-0.047,0.258-0.118,0.258c-1.151-0.094-2.278-0.094-3.499-0.094
		c-1.057,0-2.231,0.023-3.499,0.094c-0.047,0-0.094-0.117-0.094-0.258c0-0.165,0.047-0.282,0.094-0.282
		c1.503-0.141,2.396-0.47,2.396-2.137c0-3.641-0.047-10.403-0.047-11.507c0-1.292-0.587-1.973-2.466-1.973
		c-0.071,0-0.094-0.141-0.094-0.282c0-0.211,0.071-0.399,0.141-0.399c1.15,0.094,2.348,0.117,3.687,0.117
		c1.127,0,2.372-0.07,3.663-0.07c0.047,0,0.094,0.165,0.094,0.329c0,0.165-0.047,0.329-0.094,0.329
		c-1.738,0-2.418,0.657-2.418,2.442l-0.047,4.438c1.339-0.071,3.335-0.118,4.65-0.118c1.526,0,3.029,0.047,4.157,0.142
		c0-2.325-0.024-4.415-0.024-4.955c0-1.292-0.563-1.973-2.465-1.973c-0.047,0-0.071-0.141-0.071-0.282
		c0-0.211,0.047-0.399,0.118-0.399c1.174,0.094,2.372,0.117,3.71,0.117c1.127,0,2.372-0.07,3.64-0.07
		c0.047,0,0.118,0.165,0.118,0.329c0,0.165-0.071,0.329-0.118,0.329c-1.714,0-2.419,0.657-2.419,2.442
		c0,0.728-0.094,9.511-0.094,10.943c0,1.714,0.587,2.137,2.301,2.207c0.047,0,0.071,0.141,0.071,0.282
		c0,0.141-0.047,0.258-0.118,0.258c-1.174-0.094-2.278-0.094-3.499-0.094c-1.057,0-2.231,0.023-3.499,0.094
		c-0.047,0-0.117-0.117-0.117-0.258c0-0.165,0.07-0.282,0.117-0.282c1.503-0.141,2.396-0.47,2.396-2.137c0-1.62,0-3.875-0.047-5.988
		C22.738,35.582,19.92,35.582,19.121,35.582z"/>
	<path fill="#9D9FA2" d="M39.968,44.576c-5.237,0-9.44-3.828-9.44-8.713c0-4.907,4.204-8.876,9.44-8.876
		c5.213,0,9.44,3.969,9.44,8.876C49.409,40.748,45.182,44.576,39.968,44.576z M46.356,35.958c0-4.814-2.537-8.196-6.388-8.196
		c-3.71,0-6.293,3.264-6.293,8.196c0,5.025,2.184,8.055,6.293,8.055C43.749,44.013,46.356,40.818,46.356,35.958z"/>
</g>
<g>
	<path fill="#9D9FA2" d="M50.694,27.715h3.875l3.405,11.131l3.687-11.178h3.1l3.687,11.178l3.405-11.131h3.781l-5.612,16.556h-3.147
		l-3.71-10.755l-3.71,10.755h-3.147L50.694,27.715z"/>
	<path fill="#9D9FA2" d="M78.303,27.715h6.411c5.167,0,8.736,3.546,8.736,8.172v0.048c0,4.626-3.569,8.219-8.736,8.219h-6.411
		V27.715z M81.919,30.979v9.909h2.794c2.959,0,4.955-1.996,4.955-4.907v-0.047c0-2.912-1.996-4.955-4.955-4.955H81.919z"/>
	<path fill="#9D9FA2" d="M99.762,37.672l-6.317-9.957h4.227l3.921,6.599l3.992-6.599h4.11l-6.317,9.887v6.552h-3.616V37.672z"/>
	<path fill="#9D9FA2" d="M111.944,27.715h6.411c5.166,0,8.735,3.546,8.735,8.172v0.048c0,4.626-3.569,8.219-8.735,8.219h-6.411
		V27.715z M115.561,30.979v9.909h2.795c2.959,0,4.955-1.996,4.955-4.907v-0.047c0-2.912-1.996-4.955-4.955-4.955H115.561z"/>
	<path fill="#9D9FA2" d="M129.574,35.981v-0.047c0-4.674,3.688-8.501,8.76-8.501s8.712,3.781,8.712,8.454v0.048
		c0,4.673-3.687,8.501-8.759,8.501S129.574,40.654,129.574,35.981z M143.266,35.981v-0.047c0-2.818-2.066-5.167-4.979-5.167
		s-4.932,2.302-4.932,5.119v0.048c0,2.817,2.066,5.166,4.979,5.166S143.266,38.799,143.266,35.981z"/>
	<path fill="#9D9FA2" d="M149.528,35.981v-0.047c0-4.674,3.688-8.501,8.76-8.501S167,31.214,167,35.887v0.048
		c0,4.673-3.687,8.501-8.759,8.501S149.528,40.654,149.528,35.981z M163.22,35.981v-0.047c0-2.818-2.066-5.167-4.979-5.167
		s-4.932,2.302-4.932,5.119v0.048c0,2.817,2.066,5.166,4.979,5.166S163.22,38.799,163.22,35.981z"/>
</g>
<g>
	<defs>
		<rect id="SVGID_1_" width="197.294" height="58.168"/>
	</defs>
	<clipPath id="SVGID_2_">
		<use xlink:href="#SVGID_1_"  overflow="visible"/>
	</clipPath>
	<path clip-path="url(#SVGID_2_)" fill="#DCDDDE" d="M33.635,12.253c-0.414,0-0.747-0.334-0.747-0.748
		c0-0.411,0.336-0.747,0.747-0.747c0.414,0,0.748,0.336,0.748,0.747C34.383,11.919,34.049,12.253,33.635,12.253 M30.942,12.852
		c-0.411,0-0.748-0.333-0.748-0.747s0.337-0.748,0.748-0.748c0.413,0,0.747,0.337,0.747,0.748
		C31.689,12.519,31.355,12.852,30.942,12.852 M27.354,12.852c-0.411,0-0.748-0.333-0.748-0.747s0.337-0.748,0.748-0.748
		c0.413,0,0.747,0.337,0.747,0.748C28.101,12.519,27.767,12.852,27.354,12.852 M24.664,12.253c-0.414,0-0.748-0.334-0.748-0.748
		c0-0.411,0.334-0.747,0.748-0.747c0.411,0,0.747,0.336,0.747,0.747C25.411,11.919,25.075,12.253,24.664,12.253 M41.48,10.036
		c-0.599,3.989-6.182,4.786-6.182,3.489c0-1.296,0.4-8.772-1.694-9.371c-2.094-0.599-1.297-3.688-2.395-3.989
		c-0.825-0.223-1.763-0.168-2.176-0.127c-0.414-0.041-1.352-0.096-2.177,0.127c-1.098,0.301-0.301,3.39-2.395,3.989
		c-2.093,0.599-1.693,8.075-1.693,9.371c0,1.297-5.584,0.5-6.183-3.489c-0.599-3.987-5.583,5.683-0.698,9.57
		c4.428,3.523,11.799,3.528,13.146,3.498c1.346,0.03,8.717,0.025,13.145-3.498C47.064,15.719,42.08,6.048,41.48,10.036"/>
	<path clip-path="url(#SVGID_2_)" fill="#DCDDDE" d="M33.458,53.814c0.135-2.199-0.491-3.374-1.214-4.003
		c-0.309-0.612-0.918-1.039-1.638-1.092c0,0.127-0.02,0.251-0.05,0.371c-0.133,0.52-0.522,0.931-1.024,1.099
		c-0.088,0.03-0.176,0.053-0.267,0.065c-0.078,0.012-0.152,0.022-0.232,0.022c-0.08,0-0.155-0.011-0.232-0.022
		c-0.091-0.013-0.179-0.035-0.267-0.065c-0.502-0.168-0.892-0.579-1.024-1.099c-0.03-0.12-0.049-0.244-0.049-0.371
		c-0.72,0.053-1.33,0.479-1.639,1.092c-0.723,0.629-1.349,1.804-1.214,4.003c0.295,4.857-2.242,4.116-2.242,4.116
		s4.984,1.628,6.667-3.637c1.683,5.265,6.668,3.637,6.668,3.637S33.163,58.669,33.458,53.814"/>
	<path clip-path="url(#SVGID_2_)" fill="#DCDDDE" d="M179.446,38.691c0.581-0.062,1.311-0.284,1.976-0.899
		c1.104-1.021,1.615-2.757,1.527-5.163c-0.022-0.582-0.472-1.034-1.008-1.01c-0.533,0.023-0.947,0.515-0.925,1.102
		c0.061,1.674-0.226,2.868-0.831,3.445c-0.237,0.226-0.502,0.337-0.739,0.385c-0.065-4.019-0.472-8.108-0.472-8.108
		c-0.321-0.996-1.188-1.333-1.635-1.333h-0.335c-0.445,0-1.59,0.563-1.635,1.333c0,0-0.368,5.014-0.461,8.088
		c-0.212-0.058-0.438-0.164-0.646-0.352c-0.616-0.572-0.907-1.77-0.845-3.459c0.026-0.587-0.393-1.078-0.927-1.102
		c-0.537-0.024-0.983,0.428-1.006,1.01c-0.087,2.406,0.427,4.138,1.526,5.163c0.64,0.587,1.33,0.813,1.896,0.886
		c0.087,2.377,0.461,4.576,0.461,4.576c0,0.144,0.036,0.278,0.094,0.394c-1.676,0.164-2.724,0.505-2.724,0.505h8.954
		c-0.98-0.264-1.927-0.418-2.812-0.5c0.058-0.12,0.092-0.26,0.092-0.398C178.971,43.254,179.381,42.205,179.446,38.691"/>
</g>
</svg>
