<?xml version="1.0" encoding="utf-8"?>
<!-- Generator: Adobe Illustrator 16.0.3, SVG Export Plug-In . SVG Version: 6.00 Build 0)  -->
<!DOCTYPE svg PUBLIC "-//W3C//DTD SVG 1.1//EN" "http://www.w3.org/Graphics/SVG/1.1/DTD/svg11.dtd">
<svg version="1.1" id="Layer_1" xmlns="http://www.w3.org/2000/svg" xmlns:xlink="http://www.w3.org/1999/xlink" x="0px" y="0px"
	 width="40px" height="30px" viewBox="0 0 40 30" enable-background="new 0 0 40 30" xml:space="preserve">
<path fill="#DBDCDD" d="M33.145,15.542c0.399-6.517-1.456-9.998-3.597-11.861c-0.915-1.814-2.721-3.079-4.855-3.235
	c0,0.376-0.059,0.744-0.148,1.1c-0.394,1.54-1.548,2.758-3.033,3.255C21.25,4.89,20.99,4.957,20.72,4.994
	c-0.231,0.035-0.451,0.066-0.688,0.066c-0.236,0-0.458-0.032-0.687-0.066c-0.27-0.038-0.53-0.104-0.792-0.194
	c-1.487-0.498-2.642-1.716-3.034-3.255c-0.088-0.356-0.145-0.724-0.145-1.1c-2.134,0.156-3.941,1.421-4.857,3.235
	C8.376,5.544,6.52,9.025,6.921,15.542c0.874,14.393-6.644,12.197-6.644,12.197s14.769,4.823,19.755-10.776
	c4.987,15.6,19.759,10.776,19.759,10.776S32.271,29.926,33.145,15.542"/>
</svg>
